# xmcd CD database file
#
# Track frame offsets:
#	150
#	23828
#	41357
#
# Disc length: 863 seconds
#
# Revision: 0
# Processed by: cddbd v1.5.1PL2 Copyright (c) Steve Scherf et al.
# Submitted via: CD2WAV32(JP) R3.22
#
DISCID=18035d03
DTITLE=遊佐未森 - クロ
DYEAR=2005
DGENRE=JPop
TTITLE0=クロ
TTITLE1=コハク
TTITLE2=クロ (オリジナル・カラオケ)
EXTD=
EXTT0=作詞曲:遊佐未森 編曲:鹿島達也
EXTT1=作編曲:遊佐未森
EXTT2=作曲:遊佐未森 編曲:鹿島達也
PLAYORDER=
